<svg width="1440" height="540" viewBox="0 0 1440 540" fill="none" xmlns="http://www.w3.org/2000/svg">
<path d="M772.563 258.653L771.714 254.522C771.928 255.806 772.216 257.2 772.563 258.653Z" fill="#E84A27"/>
<path d="M832.774 225.107C859.059 208.798 883.092 190.196 914.213 161.886C950.384 128.989 964.412 103.46 966.885 91.1273C969.278 79.178 967.498 52.4617 947.26 34.4862C940.926 28.8582 928.256 24.4031 910.189 24.6834C891.619 24.9784 872.696 37.562 862.219 50.5808C862.559 37.4809 862.957 17.9416 850.937 7.26838C839.109 -3.23519 818.709 -1.01498 804.761 5.49074C781.09 16.5328 767.778 43.7801 764.087 56.2752C761.916 63.6365 758.763 81.9956 759.723 119.451C760.04 131.696 763.459 145.297 764.087 153.219C764.633 160.212 766.686 161.776 767.357 176.093C768.059 190.955 768.362 193.087 768.45 200.057C768.554 208.577 768.406 212.339 769.543 224.022C770.318 231.996 769.905 236.54 770.636 242.536C760.653 247.161 753.336 253.092 741.981 256.927C737.019 258.602 718.989 264.089 695.355 264.325C684.324 264.443 671.359 262.26 664.869 256.699C657.234 250.163 650.885 242.861 648.515 224.022C646.514 208.164 650.213 203.126 653.964 183.719C654.466 181.123 656.681 169.225 657.234 166.29C663.355 133.916 667.453 127.167 667.047 114.952C666.478 97.7289 665.696 74.1401 648.529 54.4975C636.022 40.1805 612.019 25.2366 585.564 30.208C560.261 34.9656 540.607 54.468 530.765 69.3456C510.054 100.65 512.461 133.518 512.233 148.86C511.945 167.75 518.088 196.598 533.415 227.061C547.488 255.032 566.124 272.712 575.988 280.767C603.867 303.529 643.922 319.624 665.437 328.276C666.678 328.778 668.088 329.22 669.247 329.678C679.673 333.823 683.992 340.048 691.05 347.107C702.037 358.09 717.313 378.035 707.847 397.486C701.476 410.564 688.378 415.484 684.066 417.099C665.149 424.195 647.496 416.583 640.777 412.983C630.352 407.392 624.511 400.392 617.999 391.77C612.285 384.209 602.738 368.896 591.478 337.762C590.57 335.247 589.455 333.063 588.577 331.028C580.89 313.14 579.288 309.416 573.633 305.432C557.825 294.302 525.914 296.308 510.062 305.727C489.056 318.208 481.976 346.938 475.235 385.589C474.799 388.089 474.43 390.567 474.083 392.972C472.54 403.453 471.078 413.352 463.901 424.247C460.719 429.078 454.089 439.132 442.497 442.023C437.83 443.188 430.846 443.771 418.117 437.937C399.688 429.484 383.001 413.861 369.844 392.758C346.35 355.066 328.667 319.676 337.793 268.707C339.048 261.685 343.988 231.155 365.053 205.531C375.744 209.425 381.229 214.662 409.759 226.228L418.479 229.496C434.537 236.009 440.06 235.123 452.058 232.675C454.561 232.166 476.674 227.15 481.569 208.835C483.792 200.522 482.913 187.363 466.146 171.837C452.575 159.275 436.184 158.028 430.801 157.615C405.58 155.69 386.147 169.019 377.848 174.706C369.881 180.172 363.022 186.353 357.13 192.851C356.96 192.792 356.798 192.74 356.628 192.681C331.842 184.361 319.401 180.179 303.608 181.58C276.836 183.948 253.593 198.944 249.2 201.924C245.198 204.645 242.149 207.08 239.454 209.226C234.241 213.386 230.469 216.396 223.048 218.808C209.323 223.263 201.703 220.379 197.14 215.326C192.865 210.598 190.857 204.69 191.639 199.652C193.744 185.991 201.459 176.011 209.182 166.961C220.028 154.245 228.261 146.832 235.519 140.296C243.914 132.736 256.746 124.784 266.61 111.441C277.921 96.1356 281.377 91.5256 283.592 85.6247C285.489 80.572 289.499 68.5711 272.369 43.2269C254.723 17.1081 213.945 17.5507 200.211 18.1776C175.854 19.284 157.609 27.7076 146.01 33.9404C88.8629 64.6176 29.3752 115.727 -1 143.461L-0.689899 152.718C29.3826 125.256 93.8246 71.8461 150.115 41.5894C157.026 37.8718 175.389 28.0026 200.581 26.8593C212.999 26.2987 245.974 24.794 261.117 46.76C270.708 60.664 268.567 77.4077 268.035 80.6163C267.12 86.1779 264.868 93.2368 254.656 107.052C245.324 119.68 238.059 126.223 229.649 133.791C222.184 140.51 213.73 148.122 202.508 161.281C193.973 171.283 179.937 186.316 177.478 202.233C176.533 208.37 176.385 218.571 187.328 223.668C200.367 229.746 215.517 230.381 225.714 227.069C234.648 224.17 239.388 220.386 244.873 216.005C247.443 213.954 250.352 211.631 254.081 209.101C256.576 207.404 279.206 192.453 304.346 190.233C317.769 189.045 329.243 192.674 351.068 199.991C330.21 226.715 323.861 256.308 322.561 263.551C312.845 317.817 338.037 358.238 362.402 397.331C376.46 419.887 394.453 436.661 414.44 445.829C422.658 449.598 429.819 451.442 436.435 451.442C439.233 451.442 441.943 451.11 444.579 450.454C459.464 446.736 467.652 434.322 471.151 429.019C479.399 416.517 481.067 405.179 482.684 394.219C483.031 391.873 483.386 389.454 483.799 387.064C491.751 341.494 508.999 322.67 522.075 314.903C535.187 307.114 556.267 306.613 568.907 315.516C572.429 317.994 575.589 316.6 583.083 334.03C583.962 336.073 584.457 339.097 585.261 341.656C591.803 362.354 592.896 380.868 610.343 403.741C617.217 412.755 629.85 420.595 636.509 423.347C644.653 426.71 664.854 433.6 687.108 425.242C700.818 420.094 710.424 412.039 715.659 401.285C726.394 379.238 714.84 352.757 699.556 337.482C691.22 329.147 683.253 325.982 672.23 321.601C671.078 321.144 669.89 320.671 668.657 320.177C647.57 311.702 608.327 295.932 581.474 274.01C572.156 266.398 554.524 249.669 541.175 223.145C526.645 194.252 523.92 166.836 524.194 148.919C524.415 134.395 524.88 104.183 544.188 75.0031C553.668 60.6713 565.474 42.8359 587.152 38.7569C609.996 34.4641 630.942 47.6304 641.936 60.214C657.057 77.511 657.751 98.4222 658.305 115.225C658.682 126.481 655.662 142.413 649.659 174.182C649.113 177.081 648.581 179.81 648.079 182.392C644.284 202.012 638.687 220.932 640.858 238.162C643.376 258.144 653.558 265.616 658.305 269.754C665.135 275.707 672.769 277.573 691.013 277.381C715.932 277.13 739.47 266.951 744.742 265.166C755.514 261.53 762.16 258.83 771.691 254.5L783.372 249.278C800.265 241.091 818.568 233.884 832.752 225.085L832.774 225.107ZM387.919 182.628C396.092 177.022 407.189 167.876 429.354 169.557C433.991 169.911 448.95 171.704 459.884 182.628C467.519 190.255 474.075 200.655 468.604 207.684C460.97 217.487 449.762 219.508 448.979 219.663C439.565 221.581 438.074 221.839 428.262 220.755L415.178 216.396C389.322 205.907 381.193 201.887 370.472 197.882C375.367 192.822 381.628 186.943 387.919 182.635V182.628ZM780.419 222.503C779.318 211.188 779.252 205.501 779.149 196.886C779.067 189.849 778.957 181.101 778.255 166.076C777.576 151.626 776.948 143.63 776.395 136.579C775.782 128.79 775.302 122.638 774.992 110.622C774.061 74.4351 776.099 64.2266 778.085 57.507C781.674 45.3659 788.348 22.7656 808.461 13.3832C813.799 10.8974 813.238 11.6129 820.791 11.6129C826.764 11.6129 832.959 14.4306 837.145 18.1481C846.249 26.2323 852.709 40.4239 852.406 51.9159C852.296 56.1793 852.761 59.3436 852.406 62.8104C851.705 69.6923 851.262 78.2412 855.677 79.1485C859.982 80.0336 861.613 71.4847 863.267 66.7271C863.563 65.8789 863.851 65.0454 864.109 64.3668C869.861 49.4007 890.564 36.9719 910.262 36.6621C925.472 36.4261 934.827 41.8549 940.003 46.4576C957.339 61.8589 953.344 89.7258 951.705 97.8985C950.376 104.522 947.275 120.034 908.343 155.439C877.813 183.21 850.974 199.858 825.021 215.96C811.813 224.155 797.747 232.483 782.22 240.169C781.629 234.991 781.068 229.171 780.419 222.51V222.503Z" fill="#E84A27"/>
<path d="M1116.37 118.662C1109.83 121.952 1104.3 125.131 1099.91 127.654C1060.96 150.055 1038.39 180.54 1029.89 192.017C1019.2 206.445 1010.76 221.271 1006.7 228.404C996.618 246.128 992.085 256.942 988.438 265.624C984.827 274.239 982.442 279.926 976.476 287.848C971.205 294.855 951.484 318.34 918.931 326.543C881.659 335.925 843.628 317.957 828.41 310.072C813.754 302.482 799.697 292.428 788.629 272.048L776.771 276.193C778.056 279.203 782.597 286.24 783.704 288.283C796.042 311.016 815.696 319.786 830.589 327.494C846.758 335.866 884.967 349.674 925.45 339.473C959.82 330.813 976.144 302.792 983.454 293.077C990.069 284.285 992.764 277.868 996.485 268.98C1000.04 260.512 1004.46 249.971 1014.29 232.697C1018.26 225.719 1026.52 211.203 1036.89 197.195C1045.1 186.117 1072.34 159.452 1109.71 137.965C1112.95 136.099 1117 133.997 1121.75 131.836C1119.58 127.558 1117.72 123.184 1116.36 118.662H1116.37Z" fill="#E84A27"/>
<path d="M783.401 249.3L771.721 254.515L772.563 258.653L774.756 269.348L776.779 276.193L788.636 272.048L783.401 249.3Z" fill="#DA301C"/>
<path d="M370.479 197.874L365.023 205.501L373.861 209.425L379.812 201.599L370.479 197.874Z" fill="#DA301C"/>
<path d="M1160.89 82.0986L1153.26 72.3547C1153.26 72.3547 1140.17 64.7279 1130.36 70.1788L1120.55 75.6223C1120.55 75.6223 1117.28 84.3335 1116.18 103.947C1115.09 123.552 1114.01 132.271 1114.01 132.271C1114.01 132.271 1109.51 184.258 1106.37 199.806C1105.18 205.707 1102.01 217.236 1097.65 254.271C1096.76 261.847 1090.02 295.666 1090.02 295.666L1085.65 314.18C1085.65 314.18 1060.57 427.462 1059.49 440.533C1058.4 453.603 1036.59 539.653 1036.59 539.653C1036.59 539.653 1046.4 538.561 1052.95 512.42L1059.49 486.279C1059.49 486.279 1078.02 418.744 1080.21 407.849C1082.38 396.955 1085.65 384.976 1085.65 384.976C1085.65 384.976 1097.85 332.362 1106.48 304.208L1115.09 276.053C1115.09 276.053 1139.08 198.715 1140.17 190.004L1141.27 181.292C1141.27 181.292 1159.8 122.475 1160.89 106.13C1161.98 89.7918 1160.89 82.1059 1160.89 82.1059V82.0986ZM1149.64 120.506C1146.69 127.144 1143.64 127.646 1143.64 127.646H1139.3V127.616C1139.77 127.661 1140.22 127.639 1140.62 127.528C1138.05 127.683 1134.27 125.286 1132.55 123.56C1130.37 121.384 1129.28 105.046 1130.37 90.8835C1130.95 83.3304 1133.09 81.0438 1134.95 80.557C1134.4 80.5865 1133.81 80.7487 1133.23 81.1397C1133.23 81.1397 1137.83 77.7245 1140.05 77.7245C1142.26 77.7245 1145.12 75.7109 1147.38 81.1397C1149.65 86.5759 1152.13 95.0657 1151.99 99.6684C1151.86 104.271 1152.6 113.86 1149.65 120.499L1149.64 120.506Z" fill="#C2D9DF"/>
<path d="M1147.37 81.1396C1145.11 75.7034 1142.26 77.7245 1140.04 77.7245C1137.83 77.7245 1133.22 81.1396 1133.22 81.1396C1133.8 80.7413 1134.39 80.5864 1134.94 80.5569C1136.27 80.4758 1137.33 81.1765 1137.33 81.1765C1137.33 81.1765 1144.97 88.8034 1146.19 104.094C1147.42 119.385 1143.87 124.747 1141.69 126.923C1141.39 127.226 1141.03 127.417 1140.62 127.528C1140.21 127.631 1139.77 127.653 1139.29 127.616V127.646H1143.64C1143.64 127.646 1146.69 127.144 1149.64 120.506C1152.59 113.867 1151.85 104.278 1151.99 99.6758C1152.12 95.0731 1149.64 86.5758 1147.37 81.147V81.1396Z" fill="#97BDC8"/>
<path d="M1357.23 328.586C1346.54 333.365 1330.52 350.382 1324.52 354.727C1316.81 360.318 1317.09 360.65 1304.96 363.563C1285.18 368.313 1251.25 368.107 1238.82 348.073C1229.84 333.609 1235.76 315.102 1237.04 311.532C1240.45 302.017 1248.83 294.176 1267.47 277.351C1276.09 269.577 1281.7 265.114 1285.8 261.861C1291.46 257.369 1294.88 254.655 1299.63 248.444C1309.72 235.263 1316.05 220.216 1317.94 204.94C1322.44 168.532 1300.36 140.097 1290.65 129.564C1263.79 100.391 1228.77 96.2091 1213.82 94.4241C1176.08 89.9099 1151.31 100.222 1130.44 110.733C1130.44 115.092 1130.48 118.507 1132.66 123.951C1153.67 114.384 1185.03 105.09 1223.12 109.641C1237.11 111.315 1259.56 108.66 1284.24 135.465C1293.12 145.105 1313.34 171.076 1309.29 203.871C1307.62 217.413 1301.73 231.361 1292.71 243.148C1288.61 248.503 1285.85 250.687 1280.38 255.039C1276.18 258.365 1248.29 272.69 1239.47 280.656C1221.09 297.245 1221.96 301.361 1217.67 313.332C1216.16 317.558 1208.76 334.678 1219.85 352.543C1235.88 378.382 1287.86 376.626 1307 372.031C1320.81 368.712 1328.19 363.357 1336 357.692C1341.92 353.392 1348.05 348.951 1357.92 344.54C1379.33 334.973 1410.69 332.377 1439.06 336.382L1439 317.691C1408.97 313.45 1380.15 318.34 1357.22 328.586H1357.23Z" fill="#E84A27"/>
<path d="M1130.44 109.995L1144.47 104.035L1145.21 118.787L1137.83 121.738L1132.62 124.15C1131.18 120.55 1130.44 116.715 1130.44 112.835V109.988V109.995Z" fill="#DA301C"/>
</svg>
