<svg width="1439" height="582" viewBox="0 0 1439 582" fill="none" xmlns="http://www.w3.org/2000/svg">
<path d="M666.497 300.653L667.346 296.522C667.132 297.806 666.844 299.2 666.497 300.653Z" fill="#E84A27"/>
<path d="M606.285 267.107C580 250.798 555.968 232.196 524.847 203.886C488.676 170.989 474.647 145.46 472.174 133.127C469.781 121.178 471.561 94.4617 491.799 76.4862C498.134 70.8582 510.804 66.4031 528.871 66.6834C547.44 66.9784 566.363 79.562 576.84 92.5808C576.501 79.4809 576.102 59.9416 588.122 49.2684C599.95 38.7648 620.351 40.985 634.298 47.4907C657.969 58.5328 671.281 85.7801 674.973 98.2752C677.143 105.637 680.296 123.996 679.336 161.451C679.019 173.696 675.6 187.297 674.973 195.219C674.426 202.212 672.374 203.776 671.702 218.093C671 232.955 670.698 235.087 670.609 242.057C670.506 250.577 670.653 254.339 669.516 266.022C668.741 273.996 669.155 278.54 668.424 284.536C678.406 289.161 685.723 295.092 697.078 298.927C702.04 300.602 720.07 306.089 743.704 306.325C754.735 306.443 767.7 304.26 774.19 298.699C781.825 292.163 788.174 284.861 790.544 266.022C792.545 250.164 788.846 245.126 785.096 225.719C784.593 223.123 782.378 211.225 781.825 208.29C775.704 175.916 771.606 169.167 772.012 156.952C772.581 139.729 773.363 116.14 790.53 96.4975C803.037 82.1805 827.04 67.2366 853.495 72.208C878.798 76.9656 898.452 96.468 908.294 111.346C929.005 142.65 926.598 175.518 926.827 190.86C927.115 209.75 920.972 238.598 905.644 269.061C891.571 297.032 872.935 314.712 863.071 322.767C835.192 345.529 795.137 361.624 773.622 370.276C772.381 370.778 770.971 371.22 769.812 371.678C759.387 375.823 755.067 382.048 748.009 389.107C737.022 400.09 721.746 420.035 731.212 439.486C737.584 452.564 750.682 457.484 754.994 459.099C773.91 466.195 791.563 458.583 798.282 454.983C808.708 449.392 814.548 442.392 821.06 433.77C826.775 426.209 836.321 410.896 847.581 379.762C848.489 377.247 849.604 375.063 850.483 373.028C858.169 355.14 859.771 351.416 865.427 347.432C881.234 336.302 913.145 338.308 928.997 347.727C950.003 360.208 957.084 388.938 963.825 427.589C964.26 430.089 964.629 432.567 964.976 434.972C966.52 445.453 967.982 455.352 975.158 466.247C978.34 471.078 984.971 481.132 996.563 484.023C1001.23 485.188 1008.21 485.771 1020.94 479.937C1039.37 471.484 1056.06 455.861 1069.21 434.758C1092.71 397.066 1110.39 361.676 1101.27 310.707C1100.01 303.685 1095.07 273.155 1074.01 247.531C1063.32 251.425 1057.83 256.662 1029.3 268.228L1020.58 271.496C1004.52 278.009 998.999 277.123 987.001 274.675C984.498 274.166 962.385 269.15 957.49 250.835C955.267 242.522 956.146 229.363 972.914 213.837C986.484 201.275 1002.88 200.028 1008.26 199.615C1033.48 197.69 1052.91 211.019 1061.21 216.706C1069.18 222.172 1076.04 228.353 1081.93 234.851C1082.1 234.792 1082.26 234.74 1082.43 234.681C1107.22 226.361 1119.66 222.179 1135.45 223.58C1162.22 225.948 1185.47 240.944 1189.86 243.924C1193.86 246.645 1196.91 249.08 1199.61 251.226C1204.82 255.386 1208.59 258.396 1216.01 260.808C1229.74 265.263 1237.36 262.379 1241.92 257.326C1246.19 252.598 1248.2 246.69 1247.42 241.652C1245.32 227.991 1237.6 218.011 1229.88 208.961C1219.03 196.245 1210.8 188.832 1203.54 182.296C1195.15 174.736 1182.31 166.784 1172.45 153.441C1161.14 138.136 1157.68 133.526 1155.47 127.625C1153.57 122.572 1149.56 110.571 1166.69 85.2269C1184.34 59.1081 1225.11 59.5507 1238.85 60.1776C1263.21 61.284 1281.45 69.7076 1293.05 75.9404C1350.2 106.618 1409.68 157.727 1440.06 185.461L1439.75 194.718C1409.68 167.256 1345.23 113.846 1288.94 83.5894C1282.03 79.8718 1263.67 70.0026 1238.48 68.8593C1226.06 68.2987 1193.09 66.794 1177.94 88.76C1168.35 102.664 1170.49 119.408 1171.02 122.616C1171.94 128.178 1174.19 135.237 1184.4 149.052C1193.74 161.68 1201 168.223 1209.41 175.791C1216.87 182.51 1225.33 190.122 1236.55 203.281C1245.09 213.283 1259.12 228.316 1261.58 244.233C1262.53 250.37 1262.67 260.571 1251.73 265.668C1238.69 271.746 1223.54 272.381 1213.35 269.069C1204.41 266.17 1199.67 262.386 1194.19 258.005C1191.62 255.954 1188.71 253.631 1184.98 251.101C1182.48 249.404 1159.85 234.453 1134.71 232.233C1121.29 231.045 1109.82 234.674 1087.99 241.991C1108.85 268.715 1115.2 298.308 1116.5 305.551C1126.21 359.817 1101.02 400.238 1076.66 439.331C1062.6 461.887 1044.61 478.661 1024.62 487.829C1016.4 491.598 1009.24 493.442 1002.62 493.442C999.826 493.442 997.116 493.11 994.48 492.454C979.596 488.736 971.407 476.322 967.908 471.019C959.66 458.517 957.992 447.179 956.375 436.219C956.028 433.873 955.673 431.454 955.26 429.064C947.308 383.494 930.061 364.67 916.985 356.903C903.872 349.114 882.792 348.613 870.152 357.516C866.63 359.994 863.47 358.6 855.976 376.03C855.097 378.073 854.603 381.097 853.798 383.656C847.256 404.354 846.163 422.868 828.716 445.741C821.843 454.755 809.21 462.595 802.55 465.347C794.406 468.71 774.205 475.6 751.952 467.242C738.241 462.094 728.635 454.039 723.4 443.285C712.665 421.238 724.22 394.757 739.503 379.482C747.839 371.147 755.806 367.982 766.829 363.601C767.981 363.144 769.17 362.671 770.403 362.177C791.49 353.702 830.732 337.932 857.585 316.01C866.903 308.398 884.535 291.669 897.884 265.145C912.414 236.252 915.139 208.836 914.866 190.919C914.644 176.395 914.179 146.183 894.871 117.003C885.391 102.671 873.585 84.8359 851.908 80.7569C829.063 76.4641 808.117 89.6304 797.123 102.214C782.002 119.511 781.308 140.422 780.754 157.225C780.378 168.481 783.397 184.413 789.4 216.182C789.946 219.081 790.478 221.81 790.98 224.392C794.775 244.012 800.372 262.932 798.201 280.162C795.683 300.144 785.502 307.616 780.754 311.754C773.925 317.707 766.29 319.573 748.046 319.381C723.127 319.13 699.589 308.951 694.317 307.166C683.545 303.53 676.9 300.83 667.368 296.5L655.687 291.278C638.794 283.091 620.491 275.884 606.307 267.085L606.285 267.107ZM1051.14 224.628C1042.97 219.022 1031.87 209.876 1009.7 211.557C1005.07 211.911 990.11 213.704 979.175 224.628C971.54 232.255 964.984 242.655 970.455 249.684C978.089 259.487 989.297 261.508 990.08 261.663C999.494 263.581 1000.99 263.839 1010.8 262.755L1023.88 258.396C1049.74 247.907 1057.87 243.887 1068.59 239.882C1063.69 234.822 1057.43 228.943 1051.14 224.635V224.628ZM658.641 264.503C659.741 253.188 659.807 247.501 659.911 238.886C659.992 231.849 660.103 223.101 660.804 208.076C661.483 193.626 662.111 185.63 662.665 178.579C663.277 170.79 663.757 164.638 664.067 152.622C664.998 116.435 662.96 106.227 660.974 99.507C657.386 87.3659 650.711 64.7656 630.599 55.3832C625.26 52.8974 625.822 53.6129 618.268 53.6129C612.295 53.6129 606.101 56.4306 601.914 60.1481C592.811 68.2323 586.35 82.4239 586.653 93.9159C586.764 98.1793 586.298 101.344 586.653 104.81C587.354 111.692 587.797 120.241 583.382 121.148C579.077 122.034 577.446 113.485 575.792 108.727C575.497 107.879 575.209 107.045 574.95 106.367C569.199 91.4007 548.496 78.9719 528.797 78.6621C513.587 78.4261 504.232 83.8549 499.057 88.4576C481.72 103.859 485.715 131.726 487.354 139.899C488.683 146.522 491.784 162.034 530.716 197.439C561.247 225.21 588.085 241.858 614.038 257.96C627.247 266.155 641.312 274.483 656.839 282.169C657.43 276.991 657.991 271.171 658.641 264.51V264.503Z" fill="#E84A27"/>
<path d="M322.69 160.662C329.224 163.952 334.755 167.131 339.148 169.654C378.095 192.055 400.673 222.54 409.172 234.017C419.855 248.445 428.295 263.271 432.355 270.404C442.441 288.128 446.974 298.942 450.622 307.624C454.232 316.239 456.617 321.926 462.583 329.848C467.855 336.855 487.576 360.34 520.129 368.543C557.4 377.925 595.432 359.957 610.649 352.072C625.305 344.482 639.363 334.428 650.43 314.048L662.288 318.193C661.003 321.203 656.463 328.24 655.355 330.283C643.017 353.016 623.363 361.786 608.471 369.494C592.301 377.866 554.092 391.674 513.609 381.473C479.24 372.813 462.915 344.792 455.606 335.077C448.99 326.285 446.295 319.868 442.574 310.98C439.023 302.512 434.6 291.971 424.773 274.697C420.8 267.719 412.538 253.203 402.165 239.195C393.962 228.117 366.717 201.452 329.35 179.965C326.109 178.099 322.055 175.997 317.308 173.836C319.478 169.558 321.339 165.184 322.698 160.662H322.69Z" fill="#E84A27"/>
<path d="M655.658 291.3L667.338 296.515L666.497 300.653L664.304 311.348L662.281 318.193L650.423 314.048L655.658 291.3Z" fill="#DA301C"/>
<path d="M1068.58 239.874L1074.04 247.501L1065.2 251.425L1059.25 243.599L1068.58 239.874Z" fill="#DA301C"/>
<path d="M278.168 124.098L285.803 114.354C285.803 114.354 298.886 106.728 308.699 112.179L318.511 117.622C318.511 117.622 321.782 126.333 322.875 145.946C323.967 165.552 325.053 174.271 325.053 174.271C325.053 174.271 329.549 226.257 332.687 241.806C333.876 247.707 337.051 259.236 341.407 296.271C342.3 303.846 349.041 337.666 349.041 337.666L353.405 356.18C353.405 356.18 378.486 469.462 379.572 482.532C380.664 495.603 402.467 581.653 402.467 581.653C402.467 581.653 392.655 580.561 386.113 554.42L379.572 528.279C379.572 528.279 361.039 460.743 358.854 449.849C356.676 438.954 353.405 426.976 353.405 426.976C353.405 426.976 341.208 374.362 332.584 346.207L323.967 318.053C323.967 318.053 299.979 240.714 298.886 232.003L297.793 223.292C297.793 223.292 279.261 164.475 278.168 148.13C277.076 131.792 278.168 124.106 278.168 124.106V124.098ZM289.421 162.506C292.374 169.144 295.423 169.646 295.423 169.646H299.757V169.616C299.285 169.66 298.842 169.638 298.436 169.528C301.013 169.683 304.785 167.285 306.513 165.559C308.691 163.383 309.784 147.045 308.691 132.883C308.108 125.33 305.974 123.044 304.114 122.557C304.66 122.586 305.251 122.748 305.834 123.139C305.834 123.139 301.227 119.724 299.012 119.724C296.797 119.724 293.939 117.711 291.68 123.139C289.413 128.576 286.932 137.066 287.065 141.668C287.198 146.271 286.46 155.86 289.413 162.498L289.421 162.506Z" fill="#C2D9DF"/>
<path d="M291.687 123.139C293.954 117.703 296.804 119.724 299.019 119.724C301.234 119.724 305.841 123.139 305.841 123.139C305.258 122.741 304.667 122.586 304.121 122.556C302.785 122.475 301.729 123.176 301.729 123.176C301.729 123.176 294.094 130.803 292.869 146.094C291.643 161.384 295.187 166.747 297.365 168.923C297.668 169.225 298.03 169.417 298.443 169.527C298.849 169.631 299.292 169.653 299.765 169.616V169.645H295.423C295.423 169.645 292.374 169.144 289.421 162.505C286.467 155.867 287.206 146.278 287.073 141.675C286.94 137.073 289.421 128.575 291.687 123.147V123.139Z" fill="#97BDC8"/>
<path d="M81.83 370.585C92.5211 375.365 108.543 392.381 114.538 396.726C122.247 402.317 121.973 402.649 134.097 405.562C153.877 410.313 187.811 410.106 200.244 390.073C209.223 375.608 203.301 357.101 202.024 353.531C198.613 344.016 190.225 336.175 171.59 319.351C162.973 311.576 157.362 307.114 153.257 303.861C147.601 299.369 144.183 296.654 139.428 290.444C129.335 277.263 123.007 262.215 121.117 246.939C116.62 210.531 138.704 182.096 148.406 171.563C175.274 142.391 210.286 138.208 225.237 136.423C262.981 131.909 287.752 142.221 308.617 152.732C308.617 157.091 308.581 160.506 306.402 165.95C285.389 156.383 254.032 147.089 215.941 151.64C201.95 153.315 179.505 150.659 154.822 177.464C145.94 187.104 125.724 213.076 129.77 245.87C131.439 259.412 137.331 273.361 146.353 285.148C150.451 290.503 153.205 292.686 158.683 297.038C162.877 300.364 190.772 314.689 199.587 322.655C217.972 339.244 217.101 343.36 221.39 355.331C222.904 359.558 230.295 376.678 219.212 394.543C203.183 420.381 151.197 418.626 132.059 414.03C118.252 410.711 110.869 405.356 103.057 399.691C97.1357 395.391 91.0075 390.95 81.1433 386.539C59.7316 376.973 28.3744 374.376 0.000113922 378.381L0.0592385 359.69C30.0874 355.449 58.9047 360.34 81.8374 370.585H81.83Z" fill="#E84A27"/>
<path d="M308.617 151.995L294.589 146.035L293.851 160.787L301.234 163.738L306.439 166.15C307.879 162.55 308.617 158.715 308.617 154.835V151.988V151.995Z" fill="#DA301C"/>
</svg>
