<svg width="1440" height="541" viewBox="0 0 1440 541" fill="none" xmlns="http://www.w3.org/2000/svg">
<g clip-path="url(#clip0_320_698)">
<path d="M248.428 371.07V327.196C248.428 327.196 248.147 322.218 254.652 318.028C261.15 313.838 330.132 288.221 330.132 288.221" fill="#E84A27"/>
<path d="M110.359 95.2919C109.015 97.3203 110.359 155.776 110.359 155.776C110.359 155.776 102.238 154.301 98.5458 146.187C94.8542 138.073 93.5473 139.762 92.809 131.649C92.0706 123.535 92.0706 114.684 93.5473 109.52C94.3595 106.681 98.5458 98.9799 102.238 96.7671" fill="#97BDC8"/>
<path d="M413.077 84.9653C413.077 84.9653 421.369 215.736 416.939 224.588C407.591 243.256 349.012 247.453 349.012 247.453C349.012 247.453 333.1 209.385 335.064 191.063C337.028 172.741 342.197 157.251 344.412 141.761C346.627 126.271 334.924 104.733 334.924 104.733L413.077 84.9653Z" fill="#97BDC8"/>
<path d="M334.917 104.733L115.52 75.3764C115.52 75.3764 151.787 50.2386 176.802 52.5104C184.924 53.2481 281.646 59.1489 413.07 84.9653L334.917 104.733Z" fill="#97BDC8"/>
<path d="M349.012 247.453C349.012 247.453 297.328 248.191 283.3 229.013C278.67 222.684 285.146 206.582 277.393 200.246C269.641 193.91 248.428 191.063 248.428 191.063V270.113C248.428 270.113 194.345 285.595 186.223 292.234C178.102 298.872 178.102 307.723 178.102 307.723L181.055 351.242L346.442 399.925C346.442 399.925 408.647 377.796 410.124 374.846C411.601 371.895 433.566 380.747 433.566 380.747C433.566 380.747 435.781 407.411 433.566 407.721C431.351 408.031 351.611 442.706 346.442 442.706C341.274 442.706 169.699 393.825 164.073 392.549C158.447 391.272 116.081 374.271 116.081 374.271C116.081 374.271 105.745 371.158 105.006 364.519C104.268 357.881 108.883 110.044 108.883 110.044C108.883 110.044 108.048 103.133 108.011 95.4762C107.96 85.4889 108.144 76.1139 115.528 75.3763C131.956 73.7388 336.364 105.028 336.29 104.881C333.138 98.5078 347.181 130.697 344.966 141.761C342.751 152.825 336.637 182.802 335.618 191.063C333.329 209.621 349.004 247.453 349.004 247.453H349.012Z" fill="#659AAB"/>
<path d="M248.428 191.063C248.428 191.063 187.146 182.33 184.193 182.33C181.239 182.33 175.333 180.855 175.333 185.28C175.333 189.706 178.102 304.286 178.102 304.286L248.428 270.12V191.07" fill="#97BDC8"/>
<path d="M248.428 270.113C248.428 270.113 408.647 305.511 410.124 306.248C411.6 306.986 412.339 307.724 412.339 313.624C412.339 319.525 415.669 372.633 410.678 375.584C405.686 378.534 346.258 399.925 346.442 399.925C346.627 399.925 181.055 351.242 181.055 351.242L178.102 307.724C178.102 307.724 179.394 295.922 186.223 292.234C193.053 288.546 248.428 270.113 248.428 270.113Z" fill="#97BDC8"/>
<path d="M412.339 313.624C412.339 313.624 349.588 337.051 345.15 337.877C340.72 338.703 179.814 300.429 179.814 300.429C179.814 300.429 182.421 294.742 184.193 292.971C186.408 290.758 248.428 270.113 248.428 270.113L410.124 306.248C410.124 306.248 412.339 305.511 412.339 313.624Z" fill="#659AAB"/>
<path d="M335.064 252.13C335.064 252.13 329.977 251.857 328.331 252.13C326.684 252.403 328.161 250.19 326.684 250.19C325.208 250.19 323.893 248.22 324.181 252.152C324.469 256.083 322.993 258.304 325.208 257.566C327.423 256.828 327.423 255.353 327.423 255.353C327.423 255.353 330.376 253.878 333.329 255.353L336.283 256.828L335.064 252.13Z" fill="#848484"/>
<path d="M343.762 247.704C343.762 247.704 344.338 283.81 343.762 285.816C342.883 288.877 342.285 288.877 342.285 288.877C342.285 288.877 342.832 273.366 342.559 267.833C342.285 262.294 341.82 255.161 341.754 252.771C341.687 250.382 341.34 248.036 341.34 248.036L343.762 247.711V247.704Z" fill="#DAE5EA"/>
<path d="M360.271 245.196V252.949C360.271 252.949 360.648 255.353 366.555 256.828C372.461 258.304 372.447 260.48 372.447 260.48C372.447 260.48 370.18 261.18 365.787 260.48C361.394 259.779 358.44 259.041 358.44 259.041C358.44 259.041 359.179 267.893 361.394 270.843C361.394 270.843 362.132 273.056 360.655 272.318C359.179 271.581 358.44 271.581 357.702 268.63C356.964 265.68 355.649 258.835 355.649 258.835C355.649 258.835 355.073 258.628 353.804 258.835C352.534 259.041 352.312 259.698 350.577 260.48C348.842 261.261 348.104 261.254 348.104 261.254V263.762C348.104 264.942 348.842 266.417 346.627 266.417C344.412 266.417 342.935 267.155 340.72 266.417C338.505 265.68 338.505 264.204 338.505 264.204V260.996C338.505 260.996 338.505 261.992 336.29 261.992C334.075 261.992 335.552 260.516 335.552 259.779C335.552 259.041 335.323 254.077 335.072 252.13C334.821 250.183 334.105 246.244 334.105 246.244C334.105 246.244 341.466 247.232 360.279 245.196" fill="#9C9EA0"/>
<path d="M363.97 304.279L361.239 297.427L365.993 296.136L377.807 299.086L363.97 304.279Z" fill="#E84A27"/>
<path d="M300.924 385.143L293.54 385.128V381.44C293.555 377.17 293.57 368.709 293.577 359.961V356.273H300.961V359.961C300.953 368.717 300.938 377.177 300.931 381.448V385.136L300.924 385.143ZM293.585 342.185V338.497C293.57 335.967 293.562 333.99 293.548 332.847V332.677C293.548 324.748 299.705 320.514 303.434 319.23L308.979 317.025L311.711 323.877L305.893 326.186C305.413 326.356 300.938 328.074 300.938 332.677V332.765C300.953 333.924 300.961 335.922 300.968 338.482V342.17L293.592 342.185H293.585ZM324.794 318.677L322.062 311.825L348.879 301.166L351.61 308.019L324.794 318.677Z" fill="#E84A27"/>
<path d="M282.561 417.908H275.178V410.465C275.178 407.508 275.54 403.392 278.692 401.821C279.542 401.393 281.757 400.825 282.561 400.876C284.267 399.785 285.98 398.251 289.073 396.207L292.152 394.179L296.221 400.338L293.142 402.366C288.453 405.457 283.853 408.385 283.802 408.415L282.598 409.182C282.576 409.536 282.554 409.956 282.554 410.473V417.915L282.561 417.908Z" fill="#E84A27"/>
<path d="M30.8624 475.906L28.5588 468.899L32.0659 467.748C40.4091 465.012 47.7556 462.437 53.8912 460.099L57.3392 458.786L59.9751 465.675L56.527 466.988C50.2807 469.371 42.8309 471.982 34.3695 474.755L30.8624 475.906ZM74.7196 459.708L72.1355 452.797L75.5909 451.506C82.9447 448.762 90.4093 446.173 97.7927 443.82L101.307 442.699L103.552 449.728L100.037 450.849C92.772 453.166 85.4108 455.71 78.1751 458.417L74.7196 459.708ZM256.542 457.813L253.294 451.189L256.609 449.566C262.641 446.608 267.536 441.681 271.154 434.925L272.897 431.672L279.409 435.146L277.666 438.399C273.31 446.557 267.315 452.539 259.858 456.19L256.542 457.813ZM238.306 457.79L234.665 457.163C228.523 456.109 221.42 454.486 211.615 451.882L208.048 450.938L209.946 443.813L213.512 444.757C223.088 447.302 229.999 448.887 235.913 449.898L239.553 450.518L238.306 457.79ZM192.676 446.697L189.11 445.738C182.059 443.835 173.878 441.718 166.731 440.442L163.099 439.793L164.398 432.535L168.031 433.184C175.458 434.511 183.824 436.68 191.037 438.62L194.603 439.579L192.676 446.697ZM118.643 445.384L116.842 438.229L120.423 437.329C129.128 435.138 136.961 433.582 143.71 432.712L147.372 432.24L148.317 439.557L144.655 440.029C138.194 440.862 130.649 442.36 122.224 444.484L118.643 445.384Z" fill="#E84A27"/>
<path d="M-2.03054 485.827L-4.03882 478.731L-0.487419 477.728C-0.443119 477.713 3.75063 476.526 10.0856 474.63L13.6222 473.568L15.7412 480.634L12.2046 481.696C5.81059 483.614 1.56516 484.816 1.52086 484.824L-2.03054 485.827Z" fill="#E84A27"/>
<path d="M410.279 358.309L409.26 351.007L412.915 350.498C412.959 350.498 417.16 349.907 423.938 349.052L427.6 348.587L428.523 355.904L424.861 356.369C418.135 357.217 413.971 357.8 413.934 357.807L410.279 358.316V358.309Z" fill="#E84A27"/>
<path d="M1365.04 469.54H1360.99V462.164H1365.04C1371.95 462.164 1379.2 461.707 1386.59 460.8L1390.25 460.35L1391.15 467.667L1387.49 468.117C1379.8 469.061 1372.25 469.533 1365.05 469.533L1365.04 469.54ZM1345.23 468.213L1341.62 467.409C1330.73 464.982 1323.94 460.497 1320.89 453.696L1319.39 450.333L1326.12 447.316L1327.63 450.68C1329.66 455.209 1334.76 458.329 1343.23 460.21L1346.83 461.014L1345.23 468.213ZM1406.31 464.989L1404.68 457.798L1408.28 456.979C1415.29 455.393 1422.45 453.431 1429.58 451.152L1433.1 450.031L1435.35 457.053L1431.83 458.174C1424.51 460.519 1417.13 462.533 1409.92 464.171L1406.32 464.989H1406.31ZM1007.61 440.169L1003.92 440.147C996.562 440.102 988.994 439.955 981.412 439.704L977.72 439.586L977.964 432.21L981.655 432.328C989.179 432.571 996.681 432.719 1003.97 432.763L1007.66 432.785L1007.62 440.161L1007.61 440.169ZM1022.76 440.036L1022.57 432.66L1026.26 432.564C1034.35 432.357 1041.82 432.003 1048.46 431.502L1052.14 431.229L1052.7 438.583L1049.01 438.856C1042.25 439.357 1034.66 439.726 1026.45 439.933L1022.76 440.029V440.036ZM962.606 438.893L958.922 438.679C951.192 438.221 943.638 437.668 936.462 437.034L932.785 436.709L933.442 429.363L937.119 429.687C944.222 430.322 951.708 430.867 959.365 431.317L963.049 431.531L962.614 438.893H962.606ZM1068.09 436.768L1066.6 429.547L1070.22 428.802C1077.54 427.297 1079.29 425.837 1079.57 425.564C1079.85 425.291 1080.05 425.048 1080.17 424.871C1079.88 424.657 1079.38 424.347 1078.52 423.978L1075.12 422.532L1078.02 415.746L1081.41 417.192C1085.62 418.985 1087.76 421.507 1087.76 424.679C1087.76 426.752 1086.76 428.802 1084.79 430.779C1082.59 432.977 1078.43 434.651 1071.71 436.031L1068.09 436.776V436.768ZM1328.43 435.404L1321.64 432.49L1323.11 429.105C1325.61 423.292 1329.32 416.735 1334.44 409.064L1336.49 405.995L1342.63 410.089L1340.58 413.157C1335.71 420.46 1332.21 426.626 1329.88 432.026L1328.42 435.411L1328.43 435.404ZM917.686 435.079L914.024 434.6C905.585 433.493 898.046 432.261 891.637 430.926L888.027 430.174L889.533 422.953L893.144 423.705C899.375 425.003 906.722 426.206 914.984 427.29L918.646 427.769L917.686 435.087V435.079ZM872.832 425.579L869.495 424.008C862.015 420.489 855.74 415.982 850.32 410.251L847.788 407.566L853.155 402.499L855.688 405.176C860.465 410.229 866.01 414.205 872.64 417.325L875.977 418.896L872.832 425.571V425.579ZM1061.31 420.519L1057.64 420.172C1051.83 419.619 1044.77 419.139 1035.43 418.667L1031.74 418.483L1032.12 411.114L1035.81 411.306C1045.26 411.785 1052.42 412.272 1058.34 412.833L1062.02 413.18L1061.32 420.526L1061.31 420.519ZM954.536 418.203H954.522C950.978 418.203 948.017 418.004 945.492 417.59L941.852 416.993L943.048 409.713L946.688 410.31C948.822 410.657 951.384 410.827 954.529 410.827H954.544C958.612 410.827 963.286 410.546 968.232 410.251L971.917 410.03L972.36 417.391L968.675 417.613C963.61 417.915 958.833 418.195 954.544 418.195L954.536 418.203ZM1016.73 417.797L1013.04 417.62C1009.62 417.458 1006.25 417.288 1002.96 417.104C999.073 416.882 995.189 416.779 991.091 416.779H987.134V409.403H991.091C995.329 409.403 999.346 409.514 1003.38 409.742C1006.64 409.927 1009.99 410.096 1013.4 410.259L1017.09 410.436L1016.73 417.804L1016.73 417.797ZM933.619 405.162L929.042 399.379L931.936 397.092C935.694 394.127 943.129 392.136 955.349 390.83L959.018 390.439L959.801 397.771L956.131 398.162C942.398 399.63 937.946 401.739 936.514 402.875L933.619 405.162ZM585.737 398.191C579.04 398.191 573.422 397.823 569.036 397.107L565.396 396.51L566.592 389.229L570.232 389.827C575.452 390.682 582.799 390.992 591.888 390.719L595.579 390.609L595.793 397.985L592.102 398.095C589.887 398.162 587.745 398.191 585.73 398.191H585.737ZM1351.54 397.668L1345.12 394.024L1346.94 390.815C1350.68 384.243 1352.57 378.01 1352.57 372.279C1352.57 372.021 1352.57 371.755 1352.55 371.505L1352.44 367.817L1359.82 367.603L1359.93 371.291C1359.94 371.623 1359.95 371.955 1359.95 372.286C1359.95 379.309 1357.73 386.773 1353.36 394.466L1351.54 397.675V397.668ZM1064.12 397.181L1064.04 389.805L1067.73 389.76C1074.05 389.687 1081.8 389.539 1090.13 389.34L1093.82 389.251L1094.01 396.628L1090.32 396.716C1081.95 396.923 1074.17 397.07 1067.82 397.144L1064.13 397.188L1064.12 397.181ZM1048.96 397.078L1039.05 396.893C1034 396.797 1028.55 396.694 1022.88 396.605L1019.19 396.546L1019.3 389.17L1022.99 389.229C1028.67 389.318 1034.13 389.421 1039.19 389.517L1049.1 389.701L1048.96 397.078ZM611.04 396.989L610.368 389.642L614.045 389.31C620.889 388.691 628.347 387.872 636.217 386.876L639.879 386.419L640.802 393.736L637.14 394.193C629.181 395.197 621.635 396.023 614.71 396.65L611.033 396.982L611.04 396.989ZM974.538 396.886L974.294 389.51L977.986 389.392C984.712 389.17 992.081 389.06 1000.51 389.052H1004.2L1004.21 396.421H1000.52C992.162 396.436 984.875 396.546 978.222 396.76L974.53 396.886H974.538ZM1109.08 396.185L1108.84 388.816L1112.53 388.691C1120.06 388.44 1127.59 388.16 1134.93 387.857L1138.62 387.703L1138.93 395.071L1135.24 395.226C1127.88 395.529 1120.32 395.816 1112.78 396.067L1109.08 396.192V396.185ZM1154.01 394.37L1153.64 387.002L1157.32 386.817C1165.15 386.419 1172.67 385.991 1179.68 385.541L1183.36 385.305L1183.83 392.667L1180.15 392.903C1173.11 393.353 1165.56 393.78 1157.7 394.179L1154.01 394.37ZM838.913 394.105L837.303 390.786C835.635 387.341 834.224 384.044 832.858 380.85C831.249 377.066 829.72 373.496 828.111 370.59L826.317 367.367L832.77 363.782L834.564 367.005C836.366 370.243 837.96 373.99 839.651 377.951C840.98 381.064 842.353 384.28 843.941 387.555L845.55 390.874L838.905 394.098L838.913 394.105ZM655.798 391.656L654.698 384.361L658.345 383.808C665.706 382.702 673.333 381.47 680.407 380.245L684.047 379.618L685.309 386.884L681.669 387.511C674.544 388.743 666.858 389.989 659.445 391.103L655.798 391.656ZM1198.93 391.582L1198.31 384.228L1201.99 383.919C1210.5 383.21 1217.96 382.458 1224.18 381.691L1227.84 381.234L1228.75 388.551L1225.09 389.008C1218.77 389.79 1211.21 390.55 1202.6 391.265L1198.93 391.575V391.582ZM1244.36 385.777L1241.93 378.814L1245.42 377.605C1251.08 375.635 1257.28 372.655 1264.95 368.207L1268.14 366.356L1271.84 372.736L1268.65 374.588C1260.58 379.272 1253.96 382.443 1247.85 384.575L1244.36 385.785V385.777ZM561.653 385.77L558.219 379.242L561.49 377.531C565.787 375.274 572.196 373.194 583.618 370.354L587.199 369.461L588.986 376.616L585.405 377.509C577.881 379.382 569.56 381.625 564.923 384.059L561.653 385.77ZM700.327 383.97L698.621 376.793L702.21 375.938C705.03 375.266 708.404 374.448 712.199 373.526C715.795 372.655 719.767 371.689 724.02 370.671L727.609 369.808L729.329 376.978L725.741 377.841C721.503 378.859 717.53 379.817 713.942 380.695C710.132 381.617 706.743 382.443 703.915 383.115L700.327 383.97ZM743.941 373.577L742.324 366.378L745.927 365.567C754.019 363.752 761.225 362.218 767.966 360.89L771.584 360.175L773.016 367.411L769.391 368.126C762.717 369.447 755.569 370.959 747.544 372.766L743.941 373.577ZM603.605 373.149L601.862 365.98L605.451 365.11C614.067 363.022 620.712 361.289 627.003 359.489L630.554 358.471L632.585 365.559L629.033 366.577C622.647 368.407 615.913 370.162 607.193 372.279L603.605 373.149ZM787.658 364.814L786.579 357.52L790.234 356.981C799.39 355.631 806.928 354.953 812.635 354.953L816.814 354.982L816.763 362.358L812.635 362.329C807.282 362.329 800.113 362.985 791.305 364.276L787.65 364.814H787.658ZM1284.71 364.689L1280.76 358.456L1283.89 356.487C1289.98 352.637 1297.04 348.255 1303.59 345.032L1306.91 343.402L1310.17 350.018L1306.86 351.648C1300.63 354.709 1293.77 358.973 1287.84 362.72L1284.71 364.689H1284.71ZM647.174 360.831L644.583 353.927L648.038 352.629C655.473 349.841 662.192 346.832 668.01 343.682L671.259 341.926L674.773 348.41L671.525 350.166C665.418 353.47 658.389 356.62 650.637 359.526L647.182 360.824L647.174 360.831ZM1347.23 356.959L1344.47 354.503C1339.62 350.158 1333.02 347.333 1326.36 346.743L1322.68 346.418L1323.33 339.072L1327.01 339.396C1335.22 340.119 1343.37 343.623 1349.39 349.007L1352.15 351.464L1347.22 356.959H1347.23ZM443.379 354.149L442.574 346.817L446.243 346.418C453.996 345.57 461.519 344.818 468.615 344.184L472.292 343.852L472.949 351.198L469.272 351.53C462.228 352.164 454.756 352.909 447.048 353.75L443.379 354.149ZM487.834 350.048L487.383 342.686L491.068 342.458C499.47 341.941 507.067 341.646 513.646 341.58L517.338 341.543L517.412 348.919L513.72 348.956C507.267 349.022 499.795 349.31 491.518 349.819L487.834 350.048ZM536.173 349.487H532.385V342.111H536.173C542.84 342.111 550.194 341.668 558.027 340.798L561.697 340.392L562.509 347.724L558.84 348.13C550.733 349.03 543.106 349.487 536.165 349.487H536.173ZM577.63 345.452L576.301 338.194L579.934 337.53C586.623 336.306 593.756 334.831 601.722 333.016L605.318 332.197L606.964 339.389L603.361 340.208C595.284 342.052 588.056 343.549 581.255 344.788L577.623 345.452H577.63ZM689.318 338.106L682.415 335.494L683.685 332.146C682.969 331.6 679.831 329.874 668.689 329.719L664.998 329.667L665.101 322.291L668.793 322.343C678.391 322.476 691.15 323.619 691.15 331.947C691.15 332.839 690.972 333.754 690.633 334.661L689.326 338.113L689.318 338.106ZM621.628 335.863L619.9 328.694L623.488 327.831C626.752 327.049 629.1 326.496 631.101 326.053C635.065 325.168 640.337 324.327 645.949 323.671L649.618 323.243L650.475 330.567L646.805 330.995C641.437 331.622 636.431 332.419 632.71 333.252C630.754 333.687 628.443 334.226 625.223 335.008L621.635 335.871L621.628 335.863Z" fill="#E84A27"/>
<path d="M352.792 258.481C352.792 258.481 351.832 296.593 352.57 302.413C352.711 303.504 356.565 303.482 355.982 304.478C353.464 308.8 345.482 312.09 343.149 312.902C340.277 313.905 336.866 309.029 338.335 308.896L339.805 308.764C341.473 310.836 342.212 310.763 343.614 309.9C345.017 309.037 348.318 306.02 348.318 306.02L344.611 304.626L334.651 309.236C334.651 309.236 333.034 310.799 331.735 307.244L330.435 303.689L331.904 303.556C332.842 305.695 334.378 306.293 334.378 306.293L343.098 300.79C343.098 300.79 343.932 297.272 346.339 299.278L348.746 301.277C348.746 301.277 349.743 279.709 348.864 270.157L348.591 259.071L352.777 258.481H352.792Z" fill="#DAE5EA"/>
</g>
<defs>
<clipPath id="clip0_320_698">
<rect width="1440" height="541" fill="white"/>
</clipPath>
</defs>
</svg>
